<?xml version="1.0" encoding="UTF-8" standalone="no"?>
<!-- Created with Inkscape (http://www.inkscape.org/) -->

<svg
   xmlns:dc="http://purl.org/dc/elements/1.1/"
   xmlns:cc="http://creativecommons.org/ns#"
   xmlns:rdf="http://www.w3.org/1999/02/22-rdf-syntax-ns#"
   xmlns:svg="http://www.w3.org/2000/svg"
   xmlns="http://www.w3.org/2000/svg"
   xmlns:xlink="http://www.w3.org/1999/xlink"
   xmlns:sodipodi="http://sodipodi.sourceforge.net/DTD/sodipodi-0.dtd"
   xmlns:inkscape="http://www.inkscape.org/namespaces/inkscape"
   id="svg3039"
   version="1.1"
   inkscape:version="0.48.2 r9819"
   width="700"
   height="800"
   sodipodi:docname="Screenshot 2014-03-20 09.10.04.png">
  <metadata
     id="metadata3045">
    <rdf:RDF>
      <cc:Work
         rdf:about="">
        <dc:format>image/svg+xml</dc:format>
        <dc:type
           rdf:resource="http://purl.org/dc/dcmitype/StillImage" />
        <dc:title></dc:title>
      </cc:Work>
    </rdf:RDF>
  </metadata>
  <defs
     id="defs3043">
    <linearGradient
       inkscape:collect="always"
       id="linearGradient5343">
      <stop
         style="stop-color:#000000;stop-opacity:1;"
         offset="0"
         id="stop5345" />
      <stop
         style="stop-color:#000000;stop-opacity:0;"
         offset="1"
         id="stop5347" />
    </linearGradient>
    <filter
       id="filter5321"
       inkscape:menu-tooltip="Bright metallic effect for any color"
       inkscape:menu="Bevels"
       inkscape:label="Bright metal"
       color-interpolation-filters="sRGB">
      <feGaussianBlur
         id="feGaussianBlur5323"
         result="result6"
         stdDeviation="8"
         in="SourceGraphic" />
      <feComposite
         id="feComposite5325"
         in2="SourceGraphic"
         in="result6"
         operator="xor"
         result="result10" />
      <feGaussianBlur
         id="feGaussianBlur5327"
         result="result2"
         stdDeviation="8" />
      <feComposite
         id="feComposite5329"
         in2="SourceGraphic"
         operator="atop"
         in="result10"
         result="result91" />
      <feComposite
         id="feComposite5331"
         in2="result91"
         result="result4"
         in="result2"
         operator="xor" />
      <feGaussianBlur
         id="feGaussianBlur5333"
         in="result4"
         result="result3"
         stdDeviation="4" />
      <feSpecularLighting
         id="feSpecularLighting5335"
         result="result5"
         specularExponent="5"
         specularConstant="1.10000002"
         surfaceScale="18">
        <feDistantLight
           id="feDistantLight5337"
           azimuth="235"
           elevation="55" />
      </feSpecularLighting>
      <feComposite
         id="feComposite5339"
         in2="result5"
         in="result3"
         k3="1.1"
         k2="0.5"
         operator="arithmetic"
         result="result7"
         k1="0.5"
         k4="0" />
      <feComposite
         id="feComposite5341"
         in2="SourceGraphic"
         in="result7"
         operator="atop"
         result="result8" />
    </filter>
    <linearGradient
       inkscape:collect="always"
       xlink:href="#linearGradient5343"
       id="linearGradient5349"
       x1="686.86664"
       y1="929.32587"
       x2="1419.8916"
       y2="929.32587"
       gradientUnits="userSpaceOnUse"
       gradientTransform="translate(-700.61207,-516.06491)" />
  </defs>
  <sodipodi:namedview
     pagecolor="#ffffff"
     bordercolor="#666666"
     borderopacity="1"
     objecttolerance="10"
     gridtolerance="10"
     guidetolerance="10"
     inkscape:pageopacity="0"
     inkscape:pageshadow="2"
     inkscape:window-width="1207"
     inkscape:window-height="669"
     id="namedview3041"
     showgrid="false"
     inkscape:zoom="0.31908193"
     inkscape:cx="972.89728"
     inkscape:cy="604.37337"
     inkscape:window-x="0"
     inkscape:window-y="0"
     inkscape:window-maximized="0"
     inkscape:current-layer="svg3039" />
  <path
     style="fill:#000000;fill-opacity:1;stroke:url(#linearGradient5349);stroke-width:0.60000002;stroke-linecap:butt;stroke-linejoin:miter;stroke-miterlimit:4;stroke-opacity:1;stroke-dasharray:none;filter:url(#filter5321)"
     d="M 136.1636,26.213028 C 104.72152,49.527038 32.702878,118.48171 49.978838,291.03534 c 46.594112,-1.13 83.170312,5.7544 100.287722,28.2059 l 92.45274,-64.2468 28.20592,10.9689 -32.9069,9.402 -147.297594,122.2257 -37.607898,4.701 c -2.47061,335.9233 134.048542,279.13 101.854722,293.0282 C 70.170988,535.96244 96.78906,498.63014 93.85472,428.93094 l 158.26656,-134.7616 20.37094,-1.567 -65.81382,54.8448 c 0.0529,89.1954 0.52233,186.4726 -3.13399,280.4923 52.40193,145.2831 81.57276,112.4613 122.22562,167.6685 -94.67282,-146.2529 -108.52327,-292.5059 -90.88571,-438.7588 l 53.27786,-42.3089 -20.37095,73.6488 c 19.28029,59.0511 41.5613,116.3018 81.4838,162.9676 51.7462,-45.5074 58.9233,-103.7489 84.6177,-156.6996 l -21.9379,-83.0508 56.4118,45.4429 c 1.2391,148.7914 36.7513,298.6213 -92.4527,443.4598 42.3161,-52.0325 92.6355,-74.72 123.7927,-167.6685 l -3.134,-282.0593 -65.8138,-57.9788 17.2369,-3.134 167.6685,141.0296 c -7.4448,96.4697 -7.7079,197.359 -67.3808,261.6883 65.2485,-43.9489 119.1309,-107.2202 101.8547,-291.4612 l -31.3399,-6.268 -145.7306,-117.5247 -39.1749,-12.536 28.206,-7.8349 94.0197,59.5458 c 32.0616,-12.0614 62.7549,-30.9643 98.7207,-23.5049 20.3039,-159.9062 -56.98,-232.97547 -86.1848,-261.688322 64.0441,92.650542 55.1001,162.492322 54.8449,235.049322 l -73.6488,10.969 -83.0507,-53.27786 -39.1749,6.26799 20.3709,-26.63893 83.0507,7.83498 42.3089,-126.92665 -89.3187,-50.143862 59.5458,54.844852 -20.3709,90.88575 -81.4838,-3.13399 -42.3089,40.74188 7.835,-29.77292 -42.3089,-25.07193 17.237,42.30889 -25.0719,0 -29.773,0 14.103,-43.87588 -45.44288,28.20592 12.53598,23.50494 -39.1749,-34.47391 -90.88575,3.13399 -18.80395,-90.88574 65.81382,-56.411852 -94.01974,50.143862 37.6079,125.35965 83.05077,-7.83497 21.93794,26.63892 -31.33992,-4.70099 -83.05077,57.97886 -79.916772,-20.371 C 77.437828,181.40418 80.873428,101.95665 136.1636,26.213028 z"
     id="path3049"
     inkscape:connector-curvature="0"
     sodipodi:nodetypes="ccccccccccccccccccccccccccccccccccccccccccccccccccccccccccccccccccccc" />
</svg>
